<svg xmlns="http://www.w3.org/2000/svg" viewBox="0 0 800 520" role="img" aria-label="Mind map: Laboratory wet-lab &amp; clinical tech">
<rect width="800" height="520" fill="#ffffff"/>
<circle cx="400" cy="260" r="64" fill="#06243a"/>
<text x="400" y="254" text-anchor="middle" fill="#eaf4f8" font-family="Inter,sans-serif" font-size="12" font-weight="700">Laboratory wet-lab &amp;</text>
<text x="400" y="270" text-anchor="middle" fill="#eaf4f8" font-family="Inter,sans-serif" font-size="12" font-weight="700">clinical tech</text>
<text x="400" y="288" text-anchor="middle" fill="#11b5a4" font-family="Inter,sans-serif" font-size="18">🧪</text>
<line x1="400" y1="260" x2="120" y2="90" stroke="#ff6b4a" stroke-width="2" stroke-opacity=".45"/>
<rect x="10" y="62" width="220" height="36" rx="10" fill="#ff6b4a"/>
<text x="120" y="86" text-anchor="middle" fill="#fff" font-family="Inter,sans-serif" font-size="13" font-weight="700">Skills</text>
<rect x="12" y="106" width="216" height="22" rx="6" fill="#fff" stroke="#ff6b4a" stroke-opacity=".35"/>
<text x="120" y="121" text-anchor="middle" fill="#0b1f2e" font-family="Inter,sans-serif" font-size="11">Phlebotomy &amp; sample accession</text>
<rect x="12" y="132" width="216" height="22" rx="6" fill="#fff" stroke="#ff6b4a" stroke-opacity=".35"/>
<text x="120" y="147" text-anchor="middle" fill="#0b1f2e" font-family="Inter,sans-serif" font-size="11">Aseptic / wet-lab technique</text>
<rect x="12" y="158" width="216" height="22" rx="6" fill="#fff" stroke="#ff6b4a" stroke-opacity=".35"/>
<text x="120" y="173" text-anchor="middle" fill="#0b1f2e" font-family="Inter,sans-serif" font-size="11">Analyser operation &amp; QC</text>
<rect x="12" y="184" width="216" height="22" rx="6" fill="#fff" stroke="#ff6b4a" stroke-opacity=".35"/>
<text x="120" y="199" text-anchor="middle" fill="#0b1f2e" font-family="Inter,sans-serif" font-size="11">Biosafety &amp; waste</text>
<line x1="400" y1="260" x2="680" y2="90" stroke="#11b5a4" stroke-width="2" stroke-opacity=".45"/>
<rect x="570" y="62" width="220" height="36" rx="10" fill="#11b5a4"/>
<text x="680" y="86" text-anchor="middle" fill="#fff" font-family="Inter,sans-serif" font-size="13" font-weight="700">Certifications</text>
<rect x="572" y="106" width="216" height="22" rx="6" fill="#fff" stroke="#11b5a4" stroke-opacity=".35"/>
<text x="680" y="121" text-anchor="middle" fill="#0b1f2e" font-family="Inter,sans-serif" font-size="11">DMLT / BMLT</text>
<rect x="572" y="132" width="216" height="22" rx="6" fill="#fff" stroke="#11b5a4" stroke-opacity=".35"/>
<text x="680" y="147" text-anchor="middle" fill="#0b1f2e" font-family="Inter,sans-serif" font-size="11">NSQF healthcare lab roles</text>
<rect x="572" y="158" width="216" height="22" rx="6" fill="#fff" stroke="#11b5a4" stroke-opacity=".35"/>
<text x="680" y="173" text-anchor="middle" fill="#0b1f2e" font-family="Inter,sans-serif" font-size="11">Phlebotomy certificates</text>
<rect x="572" y="184" width="216" height="22" rx="6" fill="#fff" stroke="#11b5a4" stroke-opacity=".35"/>
<text x="680" y="199" text-anchor="middle" fill="#0b1f2e" font-family="Inter,sans-serif" font-size="11">NABL-oriented QC training</text>
<line x1="400" y1="260" x2="120" y2="400" stroke="#0f6e8c" stroke-width="2" stroke-opacity=".45"/>
<rect x="10" y="372" width="220" height="36" rx="10" fill="#0f6e8c"/>
<text x="120" y="396" text-anchor="middle" fill="#fff" font-family="Inter,sans-serif" font-size="13" font-weight="700">Entry paths</text>
<rect x="12" y="416" width="216" height="22" rx="6" fill="#fff" stroke="#0f6e8c" stroke-opacity=".35"/>
<text x="120" y="431" text-anchor="middle" fill="#0b1f2e" font-family="Inter,sans-serif" font-size="11">Paramedical diplomas</text>
<rect x="12" y="442" width="216" height="22" rx="6" fill="#fff" stroke="#0f6e8c" stroke-opacity=".35"/>
<text x="120" y="457" text-anchor="middle" fill="#0b1f2e" font-family="Inter,sans-serif" font-size="11">Hospital lab apprenticeships</text>
<rect x="12" y="468" width="216" height="22" rx="6" fill="#fff" stroke="#0f6e8c" stroke-opacity=".35"/>
<text x="120" y="483" text-anchor="middle" fill="#0b1f2e" font-family="Inter,sans-serif" font-size="11">Pharma QC wet-lab entry</text>
<rect x="12" y="494" width="216" height="22" rx="6" fill="#fff" stroke="#0f6e8c" stroke-opacity=".35"/>
<text x="120" y="509" text-anchor="middle" fill="#0b1f2e" font-family="Inter,sans-serif" font-size="11">Blood-bank / pathology aide tracks</text>
<line x1="400" y1="260" x2="680" y2="400" stroke="#0a3554" stroke-width="2" stroke-opacity=".45"/>
<rect x="570" y="372" width="220" height="36" rx="10" fill="#0a3554"/>
<text x="680" y="396" text-anchor="middle" fill="#fff" font-family="Inter,sans-serif" font-size="13" font-weight="700">Fair types</text>
<rect x="572" y="416" width="216" height="22" rx="6" fill="#fff" stroke="#0a3554" stroke-opacity=".35"/>
<text x="680" y="431" text-anchor="middle" fill="#0b1f2e" font-family="Inter,sans-serif" font-size="11">Hospital &amp; diagnostic chain drives</text>
<rect x="572" y="442" width="216" height="22" rx="6" fill="#fff" stroke="#0a3554" stroke-opacity=".35"/>
<text x="680" y="457" text-anchor="middle" fill="#0b1f2e" font-family="Inter,sans-serif" font-size="11">State health employment melas</text>
<rect x="572" y="468" width="216" height="22" rx="6" fill="#fff" stroke="#0a3554" stroke-opacity=".35"/>
<text x="680" y="483" text-anchor="middle" fill="#0b1f2e" font-family="Inter,sans-serif" font-size="11">Paramedical campus placements</text>
<rect x="572" y="494" width="216" height="22" rx="6" fill="#fff" stroke="#0a3554" stroke-opacity=".35"/>
<text x="680" y="509" text-anchor="middle" fill="#0b1f2e" font-family="Inter,sans-serif" font-size="11">NSDC healthcare lab melas</text>
</svg>